<?xml version="1.0" encoding="utf-8"?>
<!-- Generator: Adobe Illustrator 26.0.1, SVG Export Plug-In . SVG Version: 6.00 Build 0)  -->
<svg version="1.1" id="Layer_1" xmlns="http://www.w3.org/2000/svg" xmlns:xlink="http://www.w3.org/1999/xlink" x="0px" y="0px"
	 viewBox="0 0 356.89 352.28" style="enable-background:new 0 0 356.89 352.28;" xml:space="preserve">
<g>
	<path d="M190.41,164.17c-2.04,0.17-4.11,0.19-6.12,0.52c-4.68,0.77-9.39,1.5-13.99,2.61c-5.76,1.39-11.22,3.64-16.03,7.22
		c-3.93,2.94-7.05,6.51-8.11,11.46c-0.29,1.37-0.3,2.84-0.16,4.24c0.2,1.95,1.41,3.26,3.21,4.01c1.98,0.83,5.85,0.9,8,0.15
		c-1.1-4.02-0.92-8.08,0-12.08c1.5-6.47,5.61-10.54,11.98-12.22c3.71-0.98,7.51-1.64,11.28-2.42c0.38-0.08,0.79-0.01,1.42-0.01
		c-0.05,0.51-0.05,0.98-0.15,1.41c-1.04,4.34-2.3,8.64-3.08,13.03c-1.01,5.65-0.16,11.04,3.53,15.7c1.65,2.09,3.65,3.73,6.58,4.39
		c-0.23,0.64-0.35,1.27-0.66,1.78c-1.27,2.07-3.33,3.03-5.55,3.64c-6.04,1.65-11.69,0.59-16.99-2.61c-2.2-1.33-4.16-2.95-5.68-5.05
		c-0.1-0.15-0.24-0.27-0.31-0.34c-1.24,0.86-2.37,1.8-3.63,2.5c-3.07,1.68-6.42,2.42-9.89,2.75c-3.73,0.36-7.4,0.08-10.98-0.97
		c-4.05-1.18-7.6-3.18-9.74-6.98c-2.37-4.22-3.05-8.76-2.07-13.52c1.11-5.41,3.89-9.9,7.74-13.77c6.36-6.4,14.24-9.99,22.87-12.02
		c3.43-0.81,6.97-1.17,10.46-1.73c0.43-0.07,0.86-0.13,1.53-0.23c0.53-2.05,1.2-4.15,1.58-6.3c0.46-2.66,0.29-5.33-0.54-7.93
		c-0.66-2.05-1.65-3.9-3.36-5.26c-1.8-1.44-3.75-1.66-5.36-0.69c-1.62,0.98-2.39,2.94-1.99,5.14c0.53,2.97,1.88,5.57,3.56,8.02
		c0.21,0.3,0.43,0.6,0.77,1.08c-9.09,0.97-17.62,3.36-25.68,8.15c-0.24-0.68-0.51-1.14-0.55-1.63c-0.16-2.08-0.37-4.16-0.35-6.24
		c0.04-4.09,0.65-8.11,2.09-11.96c3.04-8.09,8.97-12.87,17.26-14.8c5.59-1.3,11.22-1.53,16.78,0.15
		c8.35,2.52,13.69,8.05,15.99,16.44c1.05,3.82,1.17,7.73,0.57,11.65c-0.25,1.62-0.59,3.23-0.91,4.95c2.25,0.39,4.54,0.78,6.89,1.18
		c2.97-13.57,0.86-25.41-11.14-34.34c0.67-0.3,1.01-0.55,1.36-0.59c7.46-0.73,14.14,1.17,20.01,5.91c5.08,4.11,7.82,9.47,8.74,15.83
		c1.04,7.2,0.11,14.27-1.75,21.23c-0.99,3.71-2.29,7.34-3.4,11.02c-0.83,2.77-1.59,5.57-1.52,8.49c0.07,3.11,0.96,5.95,3.16,8.24
		c1.8,1.87,4.05,2.33,6.52,1.75c1.61-0.38,2.55-1.52,2.68-3.18c0.22-2.69-1.04-4.71-2.98-6.42c-0.44-0.39-0.8-0.89-1.13-1.51
		c8.32-2.47,16.28-5.43,23.44-10.4c0.26,0.37,0.52,0.59,0.59,0.85c1.73,6.6,2.3,13.23,0.07,19.83c-2.06,6.11-6.39,10.05-12.36,12.19
		c-5.72,2.05-11.63,2.55-17.64,1.72c-6.4-0.87-11.91-3.5-16.08-8.51c-4.17-5-6.02-10.77-5.42-17.31c0.51-5.53,2.25-10.73,4.08-15.91
		c0.23-0.64,0.44-1.29,0.64-1.94C190.5,164.45,190.44,164.35,190.41,164.17z"/>
	<path d="M298.62,149.83c-8.65-13.22-41.28-70.81-45.6-78.13c-4.33-7.32-13.98-16.31-43.27-16.64c-29.29-0.33-75.04,0-80.13,0
		c-5.09,0-17.4,3-25.39,14.98s-44.61,77.23-48.6,84.88c-3.99,7.66-6.99,17.31,2,31.29c8.99,13.98,40.61,67.24,42.94,73.23
		c2.33,5.99,9.32,22.3,32.62,21.97s46.27-0.67,54.26-0.67c7.99,0,10.99,2.66,17.64,13.98c6.66,11.32,11.65,19.97,11.65,19.97
		s77.56-121.83,81.89-130.16S307.28,163.05,298.62,149.83z M251.02,180.88c-8.99,18.64-25.96,47.6-29.96,50.6
		c-3.99,3-7.99,4.99-15.98,4.66c-7.99-0.33-31.29,0-34.29,0s-7.32,3.66-9.99,8.99s-6.99,12.98-6.99,12.98s-49.93-77.23-52.26-83.89
		c-2.33-6.66-3.66-12.65,1-20.97s26.96-46.27,29.96-50.6c3-4.33,3.66-7.66,19.31-7.66s36.81,0,46.37,0
		c9.56,0,18.55-2.33,27.87,13.32c9.32,15.65,22.97,39.28,25.96,44.61C255.02,158.25,260.01,162.24,251.02,180.88z"/>
</g>
</svg>
